<svg version="1.0" id="Layer_1" xmlns="http://www.w3.org/2000/svg" xmlns:xlink="http://www.w3.org/1999/xlink" x="0px" y="0px"
	 width="315px" height="308px" viewBox="0 0 315 308" enable-background="new 0 0 315 308" xml:space="preserve">
<path fill="none" stroke="#F26822" stroke-width="3" stroke-miterlimit="10" d="M157.836,274.69
	c-65.012,0-117.895-54.141-117.895-120.684c0-21.246,5.495-42.16,15.885-60.477c1.349-2.385,4.377-3.207,6.747-1.875
	c2.376,1.354,3.214,4.379,1.864,6.75c-9.554,16.834-14.596,36.064-14.596,55.602c0,61.088,48.444,110.787,107.994,110.787
	c18.983,0,37.699-5.172,54.138-14.945c2.332-1.402,5.382-0.635,6.773,1.721c1.408,2.346,0.633,5.379-1.718,6.779
	C199.071,269.04,178.6,274.69,157.836,274.69z M259.836,214.485c10.391-18.354,15.893-39.266,15.893-60.479
	c0-66.559-52.881-120.695-117.893-120.695c-20.771,0-41.235,5.65-59.181,16.346c-2.355,1.393-3.125,4.428-1.724,6.775
	c1.401,2.355,4.44,3.127,6.781,1.719c16.42-9.771,35.138-14.941,54.123-14.941c59.556,0,107.996,49.703,107.996,110.797
	c0,19.5-5.055,38.73-14.612,55.6c-1.347,2.379-0.512,5.396,1.866,6.746c0.77,0.436,1.607,0.643,2.436,0.643
	C257.245,216.995,258.922,216.095,259.836,214.485z M292.836,77.417c-1.807-3.041-5.732-4.043-8.768-2.223
	c-3.047,1.805-4.041,5.75-2.229,8.764c12.645,21.27,19.336,45.488,19.336,70.045c0,77.049-64.295,139.727-143.331,139.727
	c-25.277,0-50.152-6.525-71.938-18.887c-3.07-1.744-6.982-0.664-8.732,2.414c-1.723,3.066-0.662,6.982,2.424,8.73
	c23.699,13.439,50.76,20.551,78.246,20.551c86.093,0,156.136-68.422,156.136-152.535C313.98,127.14,306.67,100.651,292.836,77.417z
	 M236.096,22.028C212.349,8.581,185.288,1.464,157.845,1.464C71.731,1.464,1.688,69.892,1.688,154.003
	c0,26.873,7.311,53.352,21.146,76.568c1.801,3.049,5.729,4.043,8.768,2.229c3.049-1.811,4.045-5.742,2.225-8.771
	c-12.645-21.242-19.332-45.465-19.332-70.025c0-77.055,64.303-139.732,143.35-139.732c25.23,0,50.109,6.539,71.939,18.908
	c3.072,1.742,6.978,0.664,8.724-2.416c0.562-0.996,0.832-2.08,0.832-3.15C239.34,25.382,238.176,23.212,236.096,22.028z"/>
</svg>
