<?xml version="1.0" encoding="utf-8"?>
<!-- Generator: Adobe Illustrator 16.0.0, SVG Export Plug-In . SVG Version: 6.00 Build 0)  -->
<!DOCTYPE svg PUBLIC "-//W3C//DTD SVG 1.0//EN" "http://www.w3.org/TR/2001/REC-SVG-20010904/DTD/svg10.dtd">
<svg version="1.0" id="Layer_1" xmlns="http://www.w3.org/2000/svg" xmlns:xlink="http://www.w3.org/1999/xlink" x="0px" y="0px"
	 width="172px" height="143px" viewBox="0 0 172 143" enable-background="new 0 0 172 143" xml:space="preserve">
<g>
	<path fill="#FFFFFF" d="M-0.042,101.756h1.974l-0.021,4.766c0.21-0.168,1.092-0.818,2.52-0.818c2.646,0,3.947,2.016,3.947,5.5
		c0,3.527-1.449,5.543-4.493,5.543c-2.352,0-3.926-1.133-3.926-1.133V101.756z M1.91,108.264v6.131
		c0.357,0.23,1.071,0.65,2.079,0.65c1.869,0,2.457-1.574,2.457-3.863c0-2.352-0.525-3.758-2.394-3.758
		C2.918,107.424,2.204,108.055,1.91,108.264z"/>
	<path fill="#FFFFFF" d="M18.709,112.105l-6.866,0.021c0.042,1.932,0.903,3.002,2.918,3.002c1.827,0,3.128-0.504,3.212-0.523v1.531
		c0,0-1.197,0.631-3.338,0.631c-3.548,0-4.829-2.162-4.829-5.605c0-3.381,1.617-5.502,4.64-5.502c3.002,0,4.283,2.246,4.283,5.543
		C18.73,111.434,18.73,111.834,18.709,112.105z M16.84,110.658c0-1.828-0.693-3.297-2.436-3.297c-1.722,0-2.604,1.238-2.604,3.297
		H16.84z"/>
	<path fill="#FFFFFF" d="M19.992,107.697v-1.742h7.895v0.902l-4.871,7.391l-0.357,0.504l0.651-0.043h4.577v1.744h-7.958v-0.904
		l4.976-7.369l0.357-0.504l-0.714,0.021H19.992z"/>
	<path fill="#FFFFFF" d="M31.31,106.963c0.609-0.504,1.701-1.219,2.981-1.219c2.834,0,3.842,1.994,3.842,5.418
		c0,3.443-1.239,5.438-4.094,5.438c-1.134,0-2.058-0.504-2.352-0.756v5.018h-1.974v-14.906h1.449L31.31,106.963z M31.688,108.453
		v5.648c0.294,0.23,1.029,0.775,2.1,0.775c1.848,0,2.415-1.447,2.415-3.758c0-2.162-0.441-3.674-2.289-3.674
		C32.969,107.445,32.087,108.096,31.688,108.453z"/>
	<path fill="#FFFFFF" d="M39.29,109.986l1.932-0.672v-7.559h1.995v6.844l1.869-0.65v1.512l-1.869,0.672v6.32h-1.995v-5.607
		l-1.932,0.672V109.986z"/>
	<path fill="#FFFFFF" d="M53.064,116.453l-0.189-0.945c-0.819,0.693-1.89,1.154-3.191,1.154c-2.289,0-3.695-1.26-3.695-3.275
		c0-2.373,1.932-3.359,4.703-3.359h1.869v-0.293c0-1.639-0.441-2.436-2.289-2.436c-1.638,0-3.464,0.504-3.464,0.504v-1.555
		c0,0,1.743-0.588,3.653-0.588c3.023,0,4.052,1.49,4.052,4.242v6.551H53.064z M52.54,114.121v-2.688h-1.911
		c-1.281,0-2.729,0.336-2.729,1.828c0,1.133,0.924,1.783,2.184,1.783C50.965,115.045,51.826,114.73,52.54,114.121z"/>
	<path fill="#FFFFFF" d="M57.665,105.955v-0.588l0.504-2.352h1.47v2.939h3.338v1.596h-3.338v5.332c0,1.596,0.84,1.994,1.827,1.994
		c0.546,0,1.344-0.188,1.953-0.355v1.469c-0.693,0.336-1.785,0.566-2.562,0.566c-1.554,0-3.191-0.545-3.191-3.064v-5.941h-1.722
		v-1.408l1.344-0.188H57.665z"/>
	<path fill="#FFFFFF" d="M66.568,107.047c0.42-0.295,2.037-1.303,3.716-1.303c2.583,0,3.233,1.891,3.233,3.926v6.783h-1.974v-6.51
		c0-1.512-0.546-2.457-1.869-2.457c-1.218,0-2.562,0.904-2.813,1.051v7.916h-1.974v-10.498H66.4L66.568,107.047z"/>
	<path fill="#FFFFFF" d="M84.249,112.105l-6.866,0.021c0.042,1.932,0.903,3.002,2.918,3.002c1.827,0,3.128-0.504,3.212-0.523v1.531
		c0,0-1.197,0.631-3.338,0.631c-3.548,0-4.829-2.162-4.829-5.605c0-3.381,1.617-5.502,4.64-5.502c3.002,0,4.283,2.246,4.283,5.543
		C84.27,111.434,84.27,111.834,84.249,112.105z M82.38,110.658c0-1.828-0.693-3.297-2.436-3.297c-1.722,0-2.604,1.238-2.604,3.297
		H82.38z"/>
	<path fill="#FFFFFF" d="M89.689,114.5c0.818,0.293,2.204,0.566,3.296,0.566c1.575,0,2.436-0.609,2.436-1.596
		c0-0.924-0.714-1.344-2.268-1.617c-2.729-0.504-3.569-1.721-3.569-3.211c0-1.891,1.47-3.004,4.305-3.004
		c1.028,0,2.436,0.252,3.232,0.547v1.596c-0.776-0.252-2.204-0.482-3.107-0.482c-1.532,0-2.372,0.398-2.372,1.385
		c0,0.861,0.756,1.303,2.204,1.555c2.835,0.461,3.611,1.721,3.611,3.254c0,1.91-1.428,3.232-4.262,3.232
		c-1.449,0-2.729-0.314-3.506-0.588V114.5z"/>
	<path fill="#FFFFFF" d="M100.86,106.963c0.608-0.504,1.7-1.219,2.981-1.219c2.834,0,3.842,1.994,3.842,5.418
		c0,3.443-1.238,5.438-4.094,5.438c-1.134,0-2.058-0.504-2.352-0.756v5.018h-1.974v-14.906h1.448L100.86,106.963z M101.238,108.453
		v5.648c0.294,0.23,1.029,0.775,2.1,0.775c1.848,0,2.414-1.447,2.414-3.758c0-2.162-0.44-3.674-2.288-3.674
		C102.52,107.445,101.637,108.096,101.238,108.453z"/>
	<path fill="#FFFFFF" d="M113.712,105.555c3.128,0,4.577,2.059,4.577,5.627c0,3.549-1.449,5.607-4.577,5.607
		c-3.107,0-4.535-2.059-4.535-5.607C109.177,107.613,110.604,105.555,113.712,105.555z M113.712,115.025
		c1.827,0,2.562-1.344,2.562-3.822c0-2.457-0.714-3.904-2.562-3.904c-1.806,0-2.54,1.344-2.54,3.904
		C111.172,113.66,111.948,115.025,113.712,115.025z"/>
	<path fill="#FFFFFF" d="M121.021,105.955v-0.588l0.504-2.352h1.47v2.939h3.338v1.596h-3.338v5.332c0,1.596,0.84,1.994,1.826,1.994
		c0.547,0,1.344-0.188,1.953-0.355v1.469c-0.693,0.336-1.785,0.566-2.562,0.566c-1.554,0-3.191-0.545-3.191-3.064v-5.941h-1.722
		v-1.408l1.344-0.188H121.021z"/>
	<path fill="#FFFFFF" d="M132.087,111.729l-1.89,2.33v2.395h-1.932v-14.697h1.932v8.545l-0.062,1.428l4.367-5.773h2.204
		l-3.255,4.346l3.759,6.152h-2.226L132.087,111.729z"/>
	<path fill="#FFFFFF" d="M144.812,116.453l-0.188-0.945c-0.819,0.693-1.89,1.154-3.191,1.154c-2.288,0-3.695-1.26-3.695-3.275
		c0-2.373,1.932-3.359,4.703-3.359h1.868v-0.293c0-1.639-0.44-2.436-2.288-2.436c-1.638,0-3.464,0.504-3.464,0.504v-1.555
		c0,0,1.742-0.588,3.652-0.588c3.023,0,4.053,1.49,4.053,4.242v6.551H144.812z M144.288,114.121v-2.688h-1.911
		c-1.28,0-2.729,0.336-2.729,1.828c0,1.133,0.924,1.783,2.184,1.783C142.713,115.045,143.574,114.73,144.288,114.121z"/>
	<path fill="#FFFFFF" d="M150.231,107.047c0.42-0.295,2.036-1.303,3.716-1.303c2.583,0,3.234,1.891,3.234,3.926v6.783h-1.975v-6.51
		c0-1.512-0.545-2.457-1.868-2.457c-1.218,0-2.562,0.904-2.813,1.051v7.916h-1.974v-10.498h1.512L150.231,107.047z"/>
	<path fill="#FFFFFF" d="M160.5,101.377c0.777,0,1.239,0.672,1.239,1.219c0,0.588-0.462,1.238-1.239,1.238
		c-0.818,0-1.26-0.65-1.26-1.238C159.24,102.049,159.682,101.377,160.5,101.377z M159.472,105.955h1.995v10.498h-1.995V105.955z"/>
	<path fill="#FFFFFF" d="M170.285,116.453l-0.188-0.945c-0.819,0.693-1.89,1.154-3.191,1.154c-2.288,0-3.695-1.26-3.695-3.275
		c0-2.373,1.932-3.359,4.703-3.359h1.868v-0.293c0-1.639-0.44-2.436-2.288-2.436c-1.638,0-3.464,0.504-3.464,0.504v-1.555
		c0,0,1.742-0.588,3.652-0.588c3.023,0,4.053,1.49,4.053,4.242v6.551H170.285z M169.761,114.121v-2.688h-1.911
		c-1.28,0-2.729,0.336-2.729,1.828c0,1.133,0.924,1.783,2.184,1.783C168.186,115.045,169.047,114.73,169.761,114.121z"/>
	<path fill="#FFFFFF" d="M32.539,128.814v-0.859h7.349v0.439l-5.711,8.734l-0.336,0.504l0.609-0.041h5.417v0.861h-7.37v-0.441
		l5.774-8.713l0.357-0.504l-0.672,0.02H32.539z"/>
	<path fill="#FFFFFF" d="M56.224,123.756v0.902h-7.916v5.92h6.257v0.904h-6.257v6.066h7.916v0.904h-8.881v-14.697H56.224z"/>
	<path fill="#FFFFFF" d="M62.252,132.91l-2.394,2.834v2.709h-0.924v-14.697h0.924v9.658l-0.021,1.111l5.375-6.57h1.113l-3.422,4.24
		l4.01,6.258H65.8L62.252,132.91z"/>
	<path fill="#FFFFFF" d="M68.448,137.34c0.651,0.209,1.995,0.525,3.128,0.525c1.995,0,3.065-0.861,3.065-2.227
		c0-1.238-0.819-1.869-2.813-2.225c-2.541-0.484-3.464-1.533-3.464-2.961c0-1.785,1.344-2.75,3.926-2.75
		c1.008,0,2.31,0.252,2.96,0.482v0.777c-0.609-0.211-2.037-0.441-2.918-0.441c-1.974,0-3.002,0.588-3.002,1.953
		c0,1.154,0.924,1.783,2.708,2.1c2.688,0.482,3.569,1.531,3.569,3.086c0,1.785-1.365,3.023-3.947,3.023
		c-1.365,0-2.541-0.314-3.212-0.547V137.34z"/>
	<path fill="#FFFFFF" d="M78.947,129.109c0.567-0.504,1.743-1.387,3.191-1.387c2.792,0,3.716,2.016,3.716,5.439
		c0,3.422-1.155,5.438-3.968,5.438c-1.386,0-2.478-0.715-2.813-1.008v5.27h-0.924v-14.906h0.714L78.947,129.109z M79.073,129.906
		v6.803c0.315,0.273,1.26,1.051,2.729,1.051c2.352,0,3.107-1.723,3.107-4.619c0-2.688-0.567-4.578-2.897-4.578
		C80.753,128.562,79.598,129.445,79.073,129.906z"/>
	<path fill="#FFFFFF" d="M96.396,133.75l-7.327,0.02c0.063,2.562,1.028,4.158,3.507,4.158c1.826,0,3.023-0.588,3.044-0.588v0.797
		c0,0-1.05,0.609-3.087,0.609c-3.254,0-4.43-2.162-4.43-5.584c0-3.402,1.533-5.459,4.305-5.459c2.75,0,3.988,2.225,3.988,5.479
		V133.75z M95.473,132.994c0-2.436-0.86-4.451-3.086-4.451c-2.184,0-3.338,1.658-3.338,4.451H95.473z"/>
	<path fill="#FFFFFF" d="M99.801,129.654c0.293-0.293,2.12-2.287,4.682-1.889v0.84c-2.52-0.357-4.283,1.637-4.577,1.932v7.916
		h-0.944v-10.498h0.756L99.801,129.654z"/>
	<path fill="#FFFFFF" d="M107.424,127.955v-1.029l0.209-1.91h0.756v2.939h3.591v0.818h-3.591v6.635c0,1.973,1.051,2.289,2.037,2.289
		c0.63,0,1.533-0.232,2.121-0.42v0.734c-0.631,0.293-1.659,0.525-2.331,0.525c-1.239,0-2.792-0.379-2.792-2.898v-6.865h-1.785
		v-0.734l1.281-0.084H107.424z"/>
	<path fill="#FFFFFF" d="M122.416,133.75l-7.328,0.02c0.063,2.562,1.029,4.158,3.507,4.158c1.827,0,3.023-0.588,3.044-0.588v0.797
		c0,0-1.049,0.609-3.086,0.609c-3.254,0-4.43-2.162-4.43-5.584c0-3.402,1.532-5.459,4.304-5.459c2.751,0,3.989,2.225,3.989,5.479
		V133.75z M121.492,132.994c0-2.436-0.861-4.451-3.086-4.451c-2.184,0-3.339,1.658-3.339,4.451H121.492z"/>
	<path fill="#FFFFFF" d="M137.598,138.453v-6.971c0-1.596-0.504-2.92-2.1-2.92c-1.28,0-2.498,0.904-3.296,1.701v8.189h-0.903v-7.539
		c0-1.49-0.84-2.352-2.078-2.352c-1.533,0-3.254,1.492-3.297,1.533v8.357h-0.944v-10.498h0.756l0.084,1.363
		c0,0,1.68-1.596,3.591-1.596c1.616,0,2.372,0.988,2.582,1.785c0.609-0.693,2.058-1.785,3.674-1.785
		c2.079,0,2.877,1.408,2.877,3.654v7.076H137.598z"/>
</g>
<g>
	<g>
		<g>
			<path fill="#F26822" d="M71.271,28.268c7.088,0,11.281,5.566,11.281,16.843c0,11.323-4.055,16.886-11.281,16.886
				c-7.092,0-11.234-5.61-11.234-16.886C60.036,33.796,64.179,28.268,71.271,28.268z M71.271,57.985
				c4.324,0,6.768-3.768,6.768-12.875c0-8.77-2.488-12.833-6.768-12.833c-4.285,0-6.723,3.633-6.723,12.833
				C64.548,54.267,67.079,57.985,71.271,57.985z"/>
			<path fill="#F26822" d="M91.796,38.518c3.354,0,5.375,2.109,5.375,6.068c0,3.924-1.988,6.059-5.375,6.059
				c-3.42,0-5.447-2.135-5.447-6.059C86.349,40.627,88.376,38.518,91.796,38.518z M91.796,48.156c1.611,0,2.469-1.296,2.469-3.57
				c0-2.339-0.822-3.703-2.469-3.703c-1.711,0-2.533,1.277-2.533,3.703C89.263,46.86,90.147,48.156,91.796,48.156z M104.704,38.784
				h2.662L93.282,61.481h-2.66L104.704,38.784z M106.228,49.71c3.387,0,5.41,2.109,5.41,6.032c0,3.956-1.994,6.067-5.41,6.067
				c-3.387,0-5.408-2.111-5.408-6.067C100.819,51.819,102.841,49.71,106.228,49.71z M106.228,59.336
				c1.645,0,2.529-1.292,2.529-3.594c0-2.332-0.82-3.669-2.529-3.669c-1.648,0-2.502,1.245-2.502,3.669
				C103.726,58.044,104.612,59.336,106.228,59.336z"/>
		</g>
	</g>
	<g>
		<g>
			<g>
				<g>
					<path fill="#F26822" d="M85.837,90.257c-24.305,0-44.074-20.24-44.074-45.117c0-7.942,2.055-15.762,5.938-22.61
						c0.504-0.891,1.637-1.197,2.523-0.699c0.889,0.505,1.201,1.636,0.697,2.523c-3.572,6.294-5.457,13.482-5.457,20.786
						c0,22.837,18.111,41.417,40.373,41.417c7.098,0,14.094-1.934,20.238-5.587c0.873-0.523,2.014-0.235,2.535,0.644
						c0.525,0.877,0.234,2.012-0.645,2.533C101.253,88.145,93.599,90.257,85.837,90.257z"/>
				</g>
				<g>
					<path fill="#F26822" d="M122.358,68.688c-0.311,0-0.623-0.076-0.91-0.24c-0.891-0.504-1.203-1.633-0.699-2.521
						c3.574-6.308,5.465-13.497,5.465-20.787c0-22.84-18.111-41.421-40.377-41.421c-7.096,0-14.096,1.932-20.234,5.586
						c-0.875,0.525-2.01,0.237-2.533-0.643c-0.525-0.879-0.236-2.013,0.643-2.534c6.709-3.997,14.361-6.11,22.125-6.11
						c24.305,0,44.076,20.24,44.076,45.122c0,7.931-2.055,15.749-5.943,22.61C123.63,68.352,123.003,68.688,122.358,68.688z"/>
				</g>
			</g>
		</g>
	</g>
</g>
</svg>
