<?xml version="1.0" encoding="utf-8"?>
<!-- Generator: Adobe Illustrator 16.0.0, SVG Export Plug-In . SVG Version: 6.00 Build 0)  -->
<!DOCTYPE svg PUBLIC "-//W3C//DTD SVG 1.0//EN" "http://www.w3.org/TR/2001/REC-SVG-20010904/DTD/svg10.dtd">
<svg version="1.0" id="Layer_1" xmlns="http://www.w3.org/2000/svg" xmlns:xlink="http://www.w3.org/1999/xlink" x="0px" y="0px"
	 width="576px" height="71px" viewBox="0 0 576 71" enable-background="new 0 0 576 71" xml:space="preserve">
<g>
	<path fill="#FFFFFF" d="M37.58,50.589v3.409H0v-1.782L31.536,4.253l0.93-1.239l-1.782,0.155H2.325v-3.41h35.1v1.782L6.121,49.504
		l-0.93,1.24l1.705-0.155H37.58z"/>
	<path fill="#FFFFFF" d="M68.96,53.998l-0.31-3.797c-3.255,2.712-7.284,4.571-12.476,4.571c-8.058,0-13.404-4.494-13.404-11.777
		c0-8.368,6.818-11.933,16.504-11.933h8.988v-1.472c0-8.136-2.092-12.243-10.306-12.243c-6.044,0-12.242,2.093-12.242,2.093v-2.867
		c0,0,5.579-2.247,12.475-2.247c10.073,0,13.638,4.882,13.638,15.497v24.175H68.96z M68.263,47.257V33.774h-9.065
		c-5.889,0-12.94,1.627-12.94,9.066c0,5.578,4.262,8.987,10.383,8.987C60.979,51.828,64.854,50.124,68.263,47.257z"/>
	<path fill="#FFFFFF" d="M128.156,53.998V28.273c0-5.889-1.859-10.771-7.748-10.771c-4.727,0-9.221,3.332-12.165,6.276v30.219
		h-3.332V26.182c0-5.502-3.099-8.679-7.671-8.679c-5.656,0-12.01,5.502-12.165,5.656v30.839h-3.486V15.256h2.789l0.311,5.036
		c0,0,6.198-5.889,13.249-5.889c5.967,0,8.756,3.643,9.531,6.587c2.247-2.558,7.593-6.587,13.56-6.587
		c7.671,0,10.615,5.191,10.615,13.482v26.112H128.156z"/>
	<path fill="#FFFFFF" d="M143.342,0.069c1.627,0,2.634,1.395,2.634,2.634c0,1.317-1.007,2.635-2.634,2.635
		c-1.705,0-2.712-1.317-2.712-2.635C140.63,1.464,141.637,0.069,143.342,0.069z M141.56,15.256h3.486v38.742h-3.486V15.256z"/>
	<path fill="#FFFFFF" d="M184.099,36.642l-27.042,0.077c0.232,9.453,3.797,15.342,12.939,15.342c6.741,0,11.158-2.169,11.235-2.169
		v2.944c0,0-3.874,2.247-11.39,2.247c-12.011,0-16.35-7.981-16.35-20.611c0-12.552,5.656-20.146,15.885-20.146
		c10.15,0,14.722,8.213,14.722,20.224V36.642z M180.689,33.853c0-8.988-3.177-16.427-11.391-16.427
		c-8.058,0-12.319,6.121-12.319,16.427H180.689z"/>
	<path fill="#FFFFFF" d="M190.296,49.892c2.402,0.774,7.361,1.937,11.545,1.937c7.361,0,11.313-3.177,11.313-8.213
		c0-4.571-3.022-6.896-10.383-8.214c-9.376-1.781-12.785-5.656-12.785-10.925c0-6.586,4.959-10.15,14.489-10.15
		c3.72,0,8.523,0.93,10.926,1.782v2.867c-2.247-0.775-7.517-1.628-10.771-1.628c-7.283,0-11.08,2.17-11.08,7.206
		c0,4.262,3.409,6.587,9.995,7.749c9.918,1.782,13.172,5.656,13.172,11.39c0,6.586-5.036,11.158-14.566,11.158
		c-5.037,0-9.376-1.162-11.855-2.015V49.892z"/>
	<path fill="#FFFFFF" d="M222.141,18.433v-3.177h27.12v1.627l-21.076,32.233l-1.239,1.86l2.247-0.155h19.99v3.177h-27.196v-1.627
		l21.308-32.156l1.317-1.859l-2.479,0.077H222.141z"/>
	<path fill="#FFFFFF" d="M269.172,33.542l-8.833,10.461v9.995h-3.409V-0.241h3.409v35.643l-0.077,4.107l19.836-24.253h4.106
		l-12.63,15.652l14.8,23.09h-4.106L269.172,33.542z"/>
	<path fill="#FFFFFF" d="M315.43,53.998l-0.309-3.797c-3.256,2.712-7.285,4.571-12.477,4.571c-8.059,0-13.404-4.494-13.404-11.777
		c0-8.368,6.818-11.933,16.504-11.933h8.988v-1.472c0-8.136-2.092-12.243-10.305-12.243c-6.045,0-12.242,2.093-12.242,2.093v-2.867
		c0,0,5.578-2.247,12.475-2.247c10.072,0,13.637,4.882,13.637,15.497v24.175H315.43z M314.732,47.257V33.774h-9.064
		c-5.889,0-12.941,1.627-12.941,9.066c0,5.578,4.262,8.987,10.383,8.987C307.449,51.828,311.324,50.124,314.732,47.257z"/>
	<path fill="#FFFFFF" d="M331.623,15.256v36.107c0,12.476-1.084,15.652-8.91,19.604l-1.395-2.479
		c6.197-3.486,6.818-5.966,6.818-17.356V15.256H331.623z M329.842,0.069c1.627,0,2.633,1.395,2.633,2.634
		c0,1.317-1.006,2.635-2.633,2.635c-1.705,0-2.713-1.317-2.713-2.635C327.129,1.464,328.137,0.069,329.842,0.069z"/>
	<path fill="#FFFFFF" d="M383.537,49.581c-0.93,0.853-7.904,5.424-14.568,5.424c-10.305,0-11.854-7.671-11.854-14.179v-25.57h3.486
		v25.183c0,5.036,1.008,11.39,8.91,11.39c5.502,0,12.553-4.416,13.561-5.191V15.256h3.486v38.742h-2.713L383.537,49.581z"/>
	<path fill="#FFFFFF" d="M410.498,49.892c2.402,0.774,7.361,1.937,11.545,1.937c7.361,0,11.314-3.177,11.314-8.213
		c0-4.571-3.023-6.896-10.383-8.214c-9.377-1.781-12.785-5.656-12.785-10.925c0-6.586,4.959-10.15,14.488-10.15
		c3.721,0,8.523,0.93,10.926,1.782v2.867c-2.246-0.775-7.516-1.628-10.77-1.628c-7.285,0-11.08,2.17-11.08,7.206
		c0,4.262,3.408,6.587,9.994,7.749c9.918,1.782,13.172,5.656,13.172,11.39c0,6.586-5.035,11.158-14.566,11.158
		c-5.037,0-9.375-1.162-11.855-2.015V49.892z"/>
	<path fill="#FFFFFF" d="M446.451,0.069c1.627,0,2.633,1.395,2.633,2.634c0,1.317-1.006,2.635-2.633,2.635
		c-1.705,0-2.713-1.317-2.713-2.635C443.738,1.464,444.746,0.069,446.451,0.069z M444.668,15.256h3.486v38.742h-3.486V15.256z"/>
	<path fill="#FFFFFF" d="M487.207,36.642l-27.043,0.077c0.232,9.453,3.797,15.342,12.939,15.342c6.742,0,11.158-2.169,11.236-2.169
		v2.944c0,0-3.875,2.247-11.391,2.247c-12.01,0-16.35-7.981-16.35-20.611c0-12.552,5.656-20.146,15.885-20.146
		c10.15,0,14.723,8.213,14.723,20.224V36.642z M483.797,33.853c0-8.988-3.176-16.427-11.391-16.427
		c-8.057,0-12.318,6.121-12.318,16.427H483.797z"/>
	<path fill="#FFFFFF" d="M494.955-0.241h3.408v18.674c1.008-0.774,4.572-4.029,10.771-4.029c10.072,0,14.256,7.438,14.256,20.146
		c0,12.862-4.57,20.455-15.186,20.455c-8.059,0-13.25-4.339-13.25-4.339V-0.241z M498.363,21.765v27.042
		c1.551,1.007,4.959,3.1,9.996,3.1c8.678,0,11.623-7.129,11.623-17.356c0-10.693-2.635-17.047-11.312-17.047
		C503.014,17.503,499.525,20.758,498.363,21.765z"/>
	<path fill="#FFFFFF" d="M533.617,0.069c1.627,0,2.635,1.395,2.635,2.634c0,1.317-1.008,2.635-2.635,2.635
		c-1.705,0-2.711-1.317-2.711-2.635C530.906,1.464,531.912,0.069,533.617,0.069z M531.836,15.256h3.486v38.742h-3.486V15.256z"/>
	<path fill="#FFFFFF" d="M574.373,36.642l-27.041,0.077c0.232,9.453,3.797,15.342,12.939,15.342c6.74,0,11.158-2.169,11.234-2.169
		v2.944c0,0-3.873,2.247-11.389,2.247c-12.012,0-16.35-7.981-16.35-20.611c0-12.552,5.656-20.146,15.885-20.146
		c10.15,0,14.721,8.213,14.721,20.224V36.642z M570.965,33.853c0-8.988-3.178-16.427-11.391-16.427
		c-8.059,0-12.32,6.121-12.32,16.427H570.965z"/>
</g>
</svg>
