<?xml version="1.0" encoding="utf-8"?>
<!-- Generator: Adobe Illustrator 16.0.0, SVG Export Plug-In . SVG Version: 6.00 Build 0)  -->
<!DOCTYPE svg PUBLIC "-//W3C//DTD SVG 1.0//EN" "http://www.w3.org/TR/2001/REC-SVG-20010904/DTD/svg10.dtd">
<svg version="1.0" id="Layer_1" xmlns="http://www.w3.org/2000/svg" xmlns:xlink="http://www.w3.org/1999/xlink" x="0px" y="0px"
	 width="172px" height="143px" viewBox="0 0 172 143" enable-background="new 0 0 172 143" xml:space="preserve">
<g>
	<path fill="#FFFFFF" d="M14.397,105.568c3.128,0,4.577,2.059,4.577,5.627c0,3.549-1.449,5.607-4.577,5.607
		c-3.107,0-4.535-2.059-4.535-5.607C9.862,107.627,11.29,105.568,14.397,105.568z M14.397,115.039c1.827,0,2.562-1.344,2.562-3.822
		c0-2.457-0.714-3.904-2.562-3.904c-1.806,0-2.54,1.344-2.54,3.904C11.857,113.674,12.634,115.039,14.397,115.039z"/>
	<path fill="#FFFFFF" d="M22.189,105.969v-0.316c0-2.939,1.28-4.24,3.506-4.24c0.672,0,1.512,0.146,2.352,0.398v1.49
		c-0.65-0.168-1.344-0.336-1.932-0.336c-1.281,0-1.953,0.82-1.953,2.688v0.316h2.898v1.596h-2.898v8.902h-1.973v-8.902H20.32v-1.408
		l1.365-0.188H22.189z"/>
	<path fill="#FFFFFF" d="M37.203,112.119l-6.866,0.021c0.042,1.932,0.903,3.002,2.919,3.002c1.826,0,3.128-0.504,3.212-0.523v1.531
		c0,0-1.196,0.631-3.339,0.631c-3.548,0-4.828-2.162-4.828-5.605c0-3.381,1.616-5.502,4.64-5.502c3.003,0,4.283,2.246,4.283,5.543
		C37.224,111.447,37.224,111.848,37.203,112.119z M35.334,110.672c0-1.828-0.693-3.297-2.436-3.297
		c-1.722,0-2.604,1.238-2.604,3.297H35.334z"/>
	<path fill="#FFFFFF" d="M41.109,107.438c0.525-0.441,2.311-2.037,4.557-1.658v1.742c-2.205-0.293-3.842,1.197-4.221,1.574v7.371
		h-1.994v-10.498h1.47L41.109,107.438z"/>
	<path fill="#FFFFFF" d="M48.418,105.969v-0.588l0.504-2.352h1.47v2.939h3.339v1.596h-3.339v5.332c0,1.596,0.84,1.994,1.827,1.994
		c0.545,0,1.344-0.188,1.952-0.355v1.469c-0.692,0.336-1.784,0.566-2.562,0.566c-1.554,0-3.191-0.545-3.191-3.064v-5.941h-1.722
		v-1.408l1.344-0.188H48.418z"/>
	<path fill="#FFFFFF" d="M62.508,116.467l-0.189-0.945c-0.818,0.693-1.889,1.154-3.191,1.154c-2.288,0-3.695-1.26-3.695-3.275
		c0-2.373,1.932-3.359,4.703-3.359h1.869v-0.293c0-1.639-0.441-2.436-2.289-2.436c-1.637,0-3.464,0.504-3.464,0.504v-1.555
		c0,0,1.743-0.588,3.653-0.588c3.023,0,4.053,1.49,4.053,4.242v6.551H62.508z M61.982,114.135v-2.688h-1.91
		c-1.281,0-2.729,0.336-2.729,1.828c0,1.133,0.924,1.783,2.184,1.783C60.408,115.059,61.27,114.744,61.982,114.135z"/>
	<path fill="#FFFFFF" d="M72.883,101.77h1.553v14.697h-1.973v-12.682l-2.059,0.881v-1.826L72.883,101.77z"/>
	<path fill="#FFFFFF" d="M77.461,108.383l1.028-6.613h7.055v1.68h-5.417l-0.672,4.01c0.693-0.168,1.281-0.23,1.932-0.23
		c3.002,0,4.577,1.889,4.577,4.471c0,2.709-1.68,4.914-5.039,4.914c-2.036,0-3.527-0.609-3.527-0.609v-1.721
		c1.155,0.398,2.142,0.588,3.296,0.588c2.1,0,3.275-1.219,3.275-3.129c0-1.764-1.133-2.834-3.191-2.834
		c-0.86,0-1.428,0.104-2.372,0.377L77.461,108.383z"/>
	<path fill="#FFFFFF" d="M92.77,101.77h1.973l-0.021,4.766c0.21-0.168,1.092-0.818,2.52-0.818c2.646,0,3.947,2.016,3.947,5.5
		c0,3.527-1.448,5.543-4.493,5.543c-2.352,0-3.926-1.133-3.926-1.133V101.77z M94.722,108.277v6.131
		c0.356,0.23,1.071,0.65,2.079,0.65c1.868,0,2.456-1.574,2.456-3.863c0-2.352-0.524-3.758-2.394-3.758
		C95.729,107.438,95.016,108.068,94.722,108.277z"/>
	<path fill="#FFFFFF" d="M109.945,116.467l-0.188-0.945c-0.819,0.693-1.89,1.154-3.191,1.154c-2.288,0-3.695-1.26-3.695-3.275
		c0-2.373,1.932-3.359,4.703-3.359h1.868v-0.293c0-1.639-0.44-2.436-2.288-2.436c-1.638,0-3.464,0.504-3.464,0.504v-1.555
		c0,0,1.742-0.588,3.652-0.588c3.023,0,4.053,1.49,4.053,4.242v6.551H109.945z M109.421,114.135v-2.688h-1.911
		c-1.28,0-2.729,0.336-2.729,1.828c0,1.133,0.924,1.783,2.184,1.783C107.846,115.059,108.707,114.744,109.421,114.135z"/>
	<path fill="#FFFFFF" d="M115.785,107.061c0.42-0.295,2.036-1.303,3.716-1.303c2.583,0,3.233,1.891,3.233,3.926v6.783h-1.974v-6.51
		c0-1.512-0.546-2.457-1.868-2.457c-1.219,0-2.562,0.904-2.814,1.051v7.916h-1.973v-10.498h1.512L115.785,107.061z"/>
	<path fill="#FFFFFF" d="M129.287,111.742l-1.89,2.33v2.395h-1.932V101.77h1.932v8.545l-0.063,1.428l4.367-5.773h2.205l-3.254,4.346
		l3.758,6.152h-2.226L129.287,111.742z"/>
	<path fill="#FFFFFF" d="M139.871,105.568c3.128,0,4.576,2.059,4.576,5.627c0,3.549-1.448,5.607-4.576,5.607
		c-3.107,0-4.535-2.059-4.535-5.607C135.336,107.627,136.764,105.568,139.871,105.568z M139.871,115.039
		c1.826,0,2.561-1.344,2.561-3.822c0-2.457-0.713-3.904-2.561-3.904c-1.807,0-2.541,1.344-2.541,3.904
		C137.33,113.674,138.107,115.039,139.871,115.039z M140.605,104.666h-1.742l2.288-3.148h2.058L140.605,104.666z"/>
	<path fill="#FFFFFF" d="M157.279,116.613h-2.016l-1.911-6.719l-0.21-1.029l-0.23,1.051l-1.848,6.697h-2.037l-3.317-10.645h2.142
		l2.016,7.158l0.189,1.092l0.252-1.133l2.016-7.117h1.637l2.059,7.158l0.252,1.092l0.209-1.133l1.995-7.117h2.142L157.279,116.613z"
		/>
	<path fill="#FFFFFF" d="M20.392,138.635h-0.987l-2.498-8.314l-0.252-0.945l-0.23,0.965l-2.436,8.295h-0.987L9.6,127.969h1.029
		l2.624,8.523l0.231,0.924l0.252-0.965l2.498-8.482h0.861l2.561,8.523l0.231,0.924l0.252-0.965l2.624-8.482h1.029L20.392,138.635z"
		/>
	<path fill="#FFFFFF" d="M31.292,127.969v9.783c0,3.381-0.294,4.242-2.415,5.312l-0.377-0.672c1.68-0.945,1.848-1.617,1.848-4.703
		v-9.721H31.292z M30.809,123.854c0.441,0,0.715,0.377,0.715,0.713c0,0.357-0.273,0.715-0.715,0.715
		c-0.461,0-0.734-0.357-0.734-0.715C30.074,124.23,30.348,123.854,30.809,123.854z"/>
	<path fill="#FFFFFF" d="M42.295,133.764l-7.328,0.02c0.062,2.562,1.029,4.158,3.506,4.158c1.827,0,3.023-0.588,3.045-0.588v0.797
		c0,0-1.05,0.609-3.086,0.609c-3.255,0-4.431-2.162-4.431-5.584c0-3.402,1.532-5.459,4.304-5.459c2.751,0,3.99,2.225,3.99,5.479
		V133.764z M41.371,133.008c0-2.436-0.861-4.451-3.087-4.451c-2.184,0-3.339,1.658-3.339,4.451H41.371z"/>
	<path fill="#FFFFFF" d="M51.283,137.459c-0.357,0.314-1.344,1.238-2.982,1.238c-2.729,0-3.904-2.059-3.904-5.521
		c0-3.424,1.301-5.459,4.178-5.459c1.302,0,2.1,0.398,2.604,0.672v-4.619h0.924v14.697h-0.714L51.283,137.459z M51.178,136.66
		v-7.369c-0.504-0.273-1.322-0.715-2.562-0.715c-2.331,0-3.275,1.891-3.275,4.6c0,2.918,0.819,4.66,3.087,4.66
		C49.812,137.836,50.8,136.955,51.178,136.66z"/>
	<path fill="#FFFFFF" d="M56.113,129.229c0.294-0.211,2.142-1.492,4.01-1.492c2.541,0,3.129,1.912,3.129,3.885v6.846h-0.945v-6.762
		c0-1.91-0.692-3.107-2.372-3.107c-1.616,0-3.38,1.197-3.716,1.387v8.482h-0.945v-10.498h0.756L56.113,129.229z"/>
	<path fill="#FFFFFF" d="M65.333,127.969h1.05l3.065,8.566l0.231,0.775l3.464-9.342h1.008l-4.431,11.777
		c-1.049,2.771-1.68,3.359-3.947,3.402v-0.777c1.743-0.084,2.205-0.504,3.066-2.877l0.356-1.027L65.333,127.969z"/>
	<path fill="#FFFFFF" d="M89.082,138.467v-6.971c0-1.596-0.504-2.92-2.1-2.92c-1.281,0-2.499,0.904-3.297,1.701v8.189h-0.902v-7.539
		c0-1.49-0.84-2.352-2.079-2.352c-1.532,0-3.255,1.492-3.296,1.533v8.357h-0.945v-10.498h0.756l0.084,1.363
		c0,0,1.68-1.596,3.59-1.596c1.617,0,2.373,0.988,2.583,1.785c0.608-0.693,2.058-1.785,3.675-1.785c2.078,0,2.876,1.408,2.876,3.654
		v7.076H89.082z"/>
	<path fill="#FFFFFF" d="M110.396,138.467v-6.971c0-1.596-0.504-2.92-2.1-2.92c-1.281,0-2.499,0.904-3.297,1.701v8.189h-0.902
		v-7.539c0-1.49-0.84-2.352-2.079-2.352c-1.532,0-3.255,1.492-3.296,1.533v8.357h-0.945v-10.498h0.756l0.084,1.363
		c0,0,1.68-1.596,3.59-1.596c1.617,0,2.373,0.988,2.583,1.785c0.608-0.693,2.058-1.785,3.675-1.785c2.078,0,2.876,1.408,2.876,3.654
		v7.076H110.396z"/>
	<path fill="#FFFFFF" d="M114.934,123.854c0.441,0,0.715,0.377,0.715,0.713c0,0.357-0.273,0.715-0.715,0.715
		c-0.461,0-0.734-0.357-0.734-0.715C114.199,124.23,114.473,123.854,114.934,123.854z M114.451,127.969h0.945v10.498h-0.945V127.969
		z"/>
	<path fill="#FFFFFF" d="M126.398,133.764l-7.327,0.02c0.063,2.562,1.028,4.158,3.507,4.158c1.826,0,3.023-0.588,3.044-0.588v0.797
		c0,0-1.05,0.609-3.087,0.609c-3.254,0-4.43-2.162-4.43-5.584c0-3.402,1.533-5.459,4.305-5.459c2.75,0,3.988,2.225,3.988,5.479
		V133.764z M125.475,133.008c0-2.436-0.86-4.451-3.086-4.451c-2.184,0-3.338,1.658-3.338,4.451H125.475z"/>
	<path fill="#FFFFFF" d="M129.928,127.969v9.783c0,3.381-0.293,4.242-2.414,5.312l-0.378-0.672c1.68-0.945,1.848-1.617,1.848-4.703
		v-9.721H129.928z M129.445,123.854c0.441,0,0.714,0.377,0.714,0.713c0,0.357-0.272,0.715-0.714,0.715
		c-0.462,0-0.734-0.357-0.734-0.715C128.711,124.23,128.983,123.854,129.445,123.854z"/>
	<path fill="#FFFFFF" d="M132.637,137.354c0.651,0.209,1.995,0.525,3.129,0.525c1.994,0,3.065-0.861,3.065-2.227
		c0-1.238-0.819-1.869-2.813-2.225c-2.541-0.484-3.465-1.533-3.465-2.961c0-1.785,1.344-2.75,3.927-2.75
		c1.008,0,2.31,0.252,2.96,0.482v0.777c-0.608-0.211-2.036-0.441-2.918-0.441c-1.974,0-3.002,0.588-3.002,1.953
		c0,1.154,0.924,1.783,2.708,2.1c2.688,0.482,3.569,1.531,3.569,3.086c0,1.785-1.365,3.023-3.947,3.023
		c-1.365,0-2.541-0.314-3.213-0.547V137.354z"/>
	<path fill="#FFFFFF" d="M148.826,138.234c0,0-0.881,0.504-2.54,0.504c-2.792,0-4.451-2.035-4.451-5.562
		c0-3.508,1.68-5.564,4.472-5.564c1.659,0,2.415,0.461,2.415,0.461v0.799c0,0-1.008-0.398-2.31-0.398c-2.33,0-3.59,1.699-3.59,4.703
		c0,3.023,1.322,4.723,3.59,4.723c1.428,0,2.394-0.461,2.394-0.461L148.826,138.234z"/>
	<path fill="#FFFFFF" d="M158.486,137.27c-0.252,0.23-2.142,1.469-3.947,1.469c-2.793,0-3.213-2.078-3.213-3.842v-6.928h0.945v6.822
		c0,1.365,0.273,3.088,2.414,3.088c1.491,0,3.402-1.197,3.675-1.408v-8.502h0.944v10.498h-0.734L158.486,137.27z"/>
</g>
<path fill="#F26822" d="M84.841,90.271c-24.305,0-44.074-20.24-44.074-45.117c0-7.942,2.055-15.762,5.938-22.61
	c0.504-0.891,1.637-1.197,2.523-0.699c0.889,0.505,1.201,1.636,0.697,2.523c-3.572,6.294-5.457,13.482-5.457,20.786
	c0,22.837,18.111,41.417,40.373,41.417c7.098,0,14.094-1.934,20.238-5.587c0.873-0.523,2.014-0.235,2.535,0.644
	c0.525,0.877,0.234,2.012-0.645,2.533C100.257,88.158,92.603,90.271,84.841,90.271z M122.974,67.764
	c3.889-6.861,5.943-14.68,5.943-22.61c0-24.882-19.771-45.122-44.076-45.122c-7.764,0-15.416,2.113-22.125,6.11
	c-0.879,0.521-1.168,1.655-0.643,2.534c0.523,0.88,1.658,1.168,2.533,0.643c6.139-3.654,13.139-5.586,20.234-5.586
	c22.266,0,40.377,18.581,40.377,41.421c0,7.29-1.891,14.479-5.465,20.787c-0.504,0.888-0.191,2.017,0.699,2.521
	c0.287,0.164,0.6,0.24,0.91,0.24C122.007,68.701,122.634,68.365,122.974,67.764z M64.812,60.379v0.016
	c0,0.721,0.58,1.309,1.281,1.309h37.498c0.699,0,1.275-0.588,1.275-1.309v-0.016c0-0.715-0.576-1.307-1.275-1.307H66.093
	C65.392,59.072,64.812,59.664,64.812,60.379z M68.919,35.07c0,0.451,0.406,0.832,0.904,0.832h30.041
	c0.494,0,0.896-0.381,0.896-0.832c0-0.447-0.402-0.822-0.896-0.822H69.823C69.325,34.248,68.919,34.623,68.919,35.07z
	 M107.231,63.066H62.456c-0.711,0-1.281,0.588-1.281,1.309v0.635c0,0.717,0.57,1.305,1.281,1.305h44.775
	c0.703,0,1.277-0.588,1.277-1.305v-0.635C108.509,63.654,107.935,63.066,107.231,63.066z M70.042,55.225V39.721h-0.514
	c-0.711,0-1.281-0.549-1.281-1.219c0-0.658,0.57-1.205,1.281-1.205h6.418c0.697,0,1.277,0.547,1.277,1.205
	c0,0.67-0.58,1.219-1.277,1.219h-0.518v15.504h0.518c0.697,0,1.277,0.541,1.277,1.207c0,0.664-0.58,1.205-1.277,1.205h-6.418
	c-0.711,0-1.281-0.541-1.281-1.205c0-0.666,0.57-1.207,1.281-1.207H70.042z M72.522,53.385c0,0.354,0.281,0.646,0.625,0.646
	c0.338,0,0.619-0.293,0.619-0.646V41.557c0-0.359-0.281-0.648-0.619-0.648c-0.344,0-0.625,0.289-0.625,0.648V53.385z M87.536,39.721
	v15.504h0.518c0.707,0,1.277,0.541,1.277,1.207c0,0.664-0.57,1.205-1.277,1.205H81.63c-0.703,0-1.275-0.541-1.275-1.205
	c0-0.666,0.572-1.207,1.275-1.207h0.523V39.721H81.63c-0.703,0-1.275-0.549-1.275-1.219c0-0.658,0.572-1.205,1.275-1.205h6.424
	c0.707,0,1.277,0.547,1.277,1.205c0,0.67-0.57,1.219-1.277,1.219H87.536z M85.878,41.557c0-0.359-0.287-0.648-0.625-0.648
	c-0.344,0-0.625,0.289-0.625,0.648v11.828c0,0.354,0.281,0.646,0.625,0.646c0.338,0,0.625-0.293,0.625-0.646V41.557z M99.647,39.721
	v15.504h0.518c0.701,0,1.277,0.541,1.277,1.207c0,0.664-0.576,1.205-1.277,1.205h-6.428c-0.697,0-1.283-0.541-1.283-1.205
	c0-0.666,0.586-1.207,1.283-1.207h0.52V39.721h-0.52c-0.697,0-1.283-0.549-1.283-1.219c0-0.658,0.586-1.205,1.283-1.205h6.428
	c0.701,0,1.277,0.547,1.277,1.205c0,0.67-0.576,1.219-1.277,1.219H99.647z M97.983,41.557c0-0.359-0.281-0.648-0.623-0.648
	c-0.344,0-0.625,0.289-0.625,0.648v11.828c0,0.354,0.281,0.646,0.625,0.646c0.342,0,0.623-0.293,0.623-0.646V41.557z M64.745,34.551
	c0.443,0.551,1.291,0.682,1.871,0.27l17.189-12.006c0.582-0.41,1.529-0.41,2.113,0L103.11,34.82c0.582,0.412,1.422,0.281,1.873-0.27
	l0.387-0.48c0.443-0.551,0.338-1.34-0.246-1.738l-19.18-13.289c-0.584-0.398-1.068-0.73-1.068-0.727c-0.012,0.016-0.02,0.016-0.02,0
	c-0.01-0.004-0.488,0.328-1.074,0.727L64.61,32.332c-0.582,0.398-0.697,1.188-0.248,1.738L64.745,34.551z M96.663,33.094
	c0.707,0,0.803-0.332,0.223-0.73L85.901,24.77c-0.586-0.398-1.533-0.398-2.119,0l-10.984,7.594c-0.58,0.398-0.484,0.73,0.219,0.73
	H96.663z"/>
</svg>
